<?xml version="1.0" encoding="UTF-8" standalone="no"?>
<!-- Created with Inkscape (http://www.inkscape.org/) -->

<svg
   xmlns:dc="http://purl.org/dc/elements/1.1/"
   xmlns:cc="http://creativecommons.org/ns#"
   xmlns:rdf="http://www.w3.org/1999/02/22-rdf-syntax-ns#"
   xmlns:svg="http://www.w3.org/2000/svg"
   xmlns="http://www.w3.org/2000/svg"
   xmlns:xlink="http://www.w3.org/1999/xlink"
   xmlns:sodipodi="http://sodipodi.sourceforge.net/DTD/sodipodi-0.dtd"
   xmlns:inkscape="http://www.inkscape.org/namespaces/inkscape"
   width="64"
   height="128.00002"
   id="svg3816"
   version="1.1"
   inkscape:version="0.48.2 r9819"
   sodipodi:docname="icons.svg"
   inkscape:export-filename="/Users/stuartlowe/Projects/odin/odin/static/odin/images/icons_16.png"
   inkscape:export-xdpi="89.999992"
   inkscape:export-ydpi="89.999992">
  <defs
     id="defs3818">
    <inkscape:perspective
       sodipodi:type="inkscape:persp3d"
       inkscape:vp_x="0 : 64.000008 : 1"
       inkscape:vp_y="0 : 1000 : 0"
       inkscape:vp_z="64 : 64.000008 : 1"
       inkscape:persp3d-origin="32 : 42.666672 : 1"
       id="perspective3924" />
    <linearGradient
       id="linearGradient3775">
      <stop
         id="stop3777"
         offset="0"
         style="stop-color:#939393;stop-opacity:1;" />
      <stop
         id="stop3779"
         offset="1"
         style="stop-color:#f0f0f0;stop-opacity:1;" />
    </linearGradient>
    <linearGradient
       gradientTransform="matrix(0.73584906,0,0,1.0260417,69.831162,551.34231)"
       gradientUnits="userSpaceOnUse"
       y2="213.05951"
       x2="64.520844"
       y1="31.139874"
       x1="64.520836"
       id="linearGradient3781"
       xlink:href="#linearGradient3775-7"
       inkscape:collect="always" />
    <linearGradient
       id="linearGradient3775-7">
      <stop
         id="stop3777-3"
         offset="0"
         style="stop-color:#939393;stop-opacity:1;" />
      <stop
         id="stop3779-6"
         offset="1"
         style="stop-color:#f0f0f0;stop-opacity:1;" />
    </linearGradient>
  </defs>
  <sodipodi:namedview
     id="base"
     pagecolor="#ffffff"
     bordercolor="#666666"
     borderopacity="1.0"
     inkscape:pageopacity="0.0"
     inkscape:pageshadow="2"
     inkscape:zoom="2.8284271"
     inkscape:cx="64.248317"
     inkscape:cy="66.685219"
     inkscape:document-units="px"
     inkscape:current-layer="layer1"
     showgrid="true"
     inkscape:window-width="1280"
     inkscape:window-height="756"
     inkscape:window-x="0"
     inkscape:window-y="0"
     inkscape:window-maximized="0"
     fit-margin-top="0"
     fit-margin-left="0"
     fit-margin-right="0"
     fit-margin-bottom="0"
     showguides="true"
     inkscape:guide-bbox="true"
     inkscape:snap-global="true">
    <inkscape:grid
       type="xygrid"
       id="grid3826"
       empspacing="2"
       visible="true"
       enabled="true"
       snapvisiblegridlinesonly="true"
       spacingx="0.5px"
       spacingy="0.5px" />
  </sodipodi:namedview>
  <metadata
     id="metadata3821">
    <rdf:RDF>
      <cc:Work
         rdf:about="">
        <dc:format>image/svg+xml</dc:format>
        <dc:type
           rdf:resource="http://purl.org/dc/dcmitype/StillImage" />
        <dc:title></dc:title>
      </cc:Work>
    </rdf:RDF>
  </metadata>
  <g
     inkscape:label="Layer 1"
     inkscape:groupmode="layer"
     id="layer1"
     transform="translate(0,-1036.3622)">
    <path
       style="fill:#000000;fill-opacity:1;stroke:none"
       d="m 56,32 c -3.865994,0 -7,3.3579 -7,7.5 0,4.1422 3.134006,7.5 7,7.5 3.865994,0 7,-3.3578 7,-7.5 C 63,35.3579 59.865994,32 56,32 z m -0.03125,2 C 57.96875,34 60.5,36.000015 60,38.500015 59,41.000015 56.96875,40 56.96875,42 l -2,0 c 0,-2.4915 1.703794,-2.0575 2.5,-3.5 0.5,-1 0,-2.5 -1.5,-2.5 C 54.46875,36 54,37 54,38 l -2,0 c 0,-2.5 1.96875,-4 3.96875,-4 z m 0,9 c 0.552285,0 1,0.4477 1,1 0,0.5523 -0.447715,1 -1,1 -0.552285,0 -1,-0.4477 -1,-1 0,-0.5523 0.447715,-1 1,-1 z"
       transform="translate(0,1036.3622)"
       id="path3856"
       inkscape:connector-curvature="0"
       sodipodi:nodetypes="ssssssccccsccssssss" />
    <path
       style="fill:#000000;fill-opacity:1;stroke:none"
       d="M 33 17 L 33 21 L 33 31 L 47 31 L 47 21 L 47 17 L 33 17 z M 34 21 L 46 21 L 46 30 L 34 30 L 34 21 z M 35 22 L 35 25 L 35 29 L 45 29 L 45 25 L 45 22 L 35 22 z M 36 25 L 44 25 L 44 28 L 36 28 L 36 25 z "
       transform="translate(0,1036.3622)"
       id="rect3112" />
    <path
       style="fill:#000000;stroke:none;stroke-width:1px;stroke-linecap:butt;stroke-linejoin:miter;stroke-opacity:1;fill-opacity:1"
       d="M 33 1 L 33 15 L 33.5 15 L 47 15 L 47 4.5 L 43.5 1 L 33 1 z M 36 9 L 44 9 L 44 14 L 36 14 L 36 9 z M 37 10 L 37 11 L 43 11 L 43 10 L 37 10 z M 37 12 L 37 13 L 43 13 L 43 12 L 37 12 z "
       transform="translate(0,1036.3622)"
       id="path4011" />
    <path
       style="fill:#000000;fill-opacity:1;stroke:none"
       d="M 17 33 L 17 43 L 20 43 L 20 47 L 31 47 L 31 36 L 27 36 L 27 33 L 17 33 z M 19 35 L 25 35 L 25 36 L 20 36 L 20 38 L 20 41 L 19 41 L 19 35 z M 22 38 L 29 38 L 29 45 L 22 45 L 22 38 z M 23 39 L 23 40 L 28 40 L 28 39 L 23 39 z M 23 41 L 23 42 L 28 42 L 28 41 L 23 41 z M 23 43 L 23 44 L 28 44 L 28 43 L 23 43 z "
       transform="translate(0,1036.3622)"
       id="path3925" />
    <path
       style="fill:#000000;fill-opacity:1;stroke:none"
       d="M 22 80 L 22 82.21875 C 21.559018 82.344651 21.138202 82.524294 20.75 82.75 L 19 81 L 17 83 L 18.75 84.75 C 18.524292 85.138202 18.344653 85.559016 18.21875 86 L 16 86 L 16 89 L 18.21875 89 C 18.344653 89.440984 18.524292 89.861798 18.75 90.25 L 17 92 L 19 94 L 20.75 92.25 C 21.138202 92.475706 21.559018 92.655349 22 92.78125 L 22 95 L 25 95 L 25 92.78125 C 25.440982 92.655349 25.861798 92.475706 26.25 92.25 L 28 94 L 30 92 L 28.25 90.25 C 28.475708 89.861798 28.655347 89.440984 28.78125 89 L 31 89 L 31 86 L 28.78125 86 C 28.655347 85.559016 28.475708 85.138202 28.25 84.75 L 30 83 L 28 81 L 26.25 82.75 C 25.861798 82.524294 25.440982 82.344651 25 82.21875 L 25 80 L 22 80 z M 23.5 84 C 25.525044 84 27 85.475 27 87.5 C 27 89.5251 25.525044 91 23.5 91 C 21.474956 91 20 89.5251 20 87.5 C 20 85.475 21.474956 84 23.5 84 z "
       transform="translate(0,1036.3622)"
       id="rect3917" />
    <path
       sodipodi:nodetypes="ccccccc"
       inkscape:connector-curvature="0"
       id="path3881"
       d="m 8,1136.3622 -7,7 2.5,0 4.5,-4.5 4.5,4.5 2.5,0 z"
       style="fill:#000000;fill-opacity:1;stroke:none" />
    <path
       style="fill:#000000;fill-opacity:1;stroke:none"
       d="m 3.999985,1124.3622 7,7 0,-2.5 -4.5,-4.5 4.5,-4.5 0,-2.5 z"
       id="path3875"
       inkscape:connector-curvature="0"
       sodipodi:nodetypes="ccccccc" />
    <path
       sodipodi:nodetypes="ccccccc"
       inkscape:connector-curvature="0"
       id="path3869"
       d="m 8,1112.3622 7,-7 -2.5,0 -4.5,4.5 -4.5,-4.5 -2.5,0 z"
       style="fill:#000000;fill-opacity:1;stroke:none" />
    <path
       style="fill:#000000;fill-opacity:1;stroke:none"
       d="m 3,1041.3622 2,-2 2.5,2.5 2.5,-2.5 2,2 -2.5,2.5 2.5,2.5 -2,2 -2.5,-2.5 -2.5,2.5 -2,-2 2.5,-2.5 z"
       id="path5996"
       inkscape:connector-curvature="0"
       sodipodi:nodetypes="ccccccccccccc" />
    <g
       id="g6051"
       style="fill:none"
       transform="translate(0,-15.999983)">
      <rect
         style="fill:none;stroke:none"
         id="rect6006"
         width="16"
         height="16"
         x="0"
         y="1084.3622"
         ry="0.066356063" />
      <rect
         style="fill:none;stroke:none"
         id="rect5932"
         width="16"
         height="16"
         x="0"
         y="1052.3622"
         ry="0.066356063" />
      <rect
         style="fill:none;stroke:none"
         id="rect5972"
         width="16"
         height="16"
         x="16"
         y="1068.3622"
         ry="0.066356063" />
      <rect
         ry="0.066356063"
         y="1052.3622"
         x="32"
         height="16"
         width="16"
         id="rect5974"
         style="fill:none;stroke:none" />
      <rect
         ry="0.066356063"
         y="1084.3622"
         x="32"
         height="16"
         width="16"
         id="rect6008"
         style="fill:none;stroke:none" />
      <rect
         style="fill:none;stroke:none"
         id="rect6010"
         width="16"
         height="16"
         x="16"
         y="1100.3622"
         ry="0.066356063" />
      <rect
         transform="matrix(0,-1,1,0,0,0)"
         ry="0.066356063"
         y="6.9337189e-14"
         x="-1132.3622"
         height="16"
         width="16"
         id="rect6012"
         style="fill:none;stroke:none" />
      <rect
         style="fill:none;stroke:none"
         id="rect6014"
         width="16"
         height="16"
         x="32"
         y="1116.3622"
         ry="0.066356063" />
      <rect
         ry="0.066356063"
         y="1132.3622"
         x="16"
         height="16"
         width="16"
         id="rect6037"
         style="fill:none;stroke:none" />
      <rect
         style="fill:none;stroke:none"
         id="rect6039"
         width="16"
         height="16"
         x="-1164.3622"
         y="6.9337189e-14"
         ry="0.066356063"
         transform="matrix(0,-1,1,0,0,0)" />
      <rect
         ry="0.066356063"
         y="1148.3622"
         x="32"
         height="16"
         width="16"
         id="rect6041"
         style="fill:none;stroke:none" />
    </g>
    <path
       sodipodi:nodetypes="ccccc"
       inkscape:connector-curvature="0"
       id="path3080"
       d="m 12,1075.3622 0,3 c -3.333333,0 -5.666667,0 -9,0 l 0,-3 c 3.333333,0 5.666667,0 9,0 z"
       style="fill:#000000;fill-opacity:1;stroke:none" />
    <path
       style="fill:#000000;fill-opacity:1;stroke:none"
       d="m 6,1055.3622 3,0 0,3 3,0 0,3 -3,0 0,3 -3,0 0,-3 -3,0 0,-3 3,0 z"
       id="path3082"
       inkscape:connector-curvature="0"
       sodipodi:nodetypes="ccccccccccccc" />
    <text
       xml:space="preserve"
       style="font-size:40px;font-style:normal;font-variant:normal;font-weight:normal;font-stretch:normal;line-height:125%;letter-spacing:0px;word-spacing:0px;fill:#000000;fill-opacity:1;stroke:none;font-family:Century Gothic;-inkscape-font-specification:Century Gothic"
       x="50.940369"
       y="20.206964"
       id="text5513"
       sodipodi:linespacing="125%"
       transform="translate(0,1052.3622)"><tspan
         sodipodi:role="line"
         id="tspan5515"
         x="50.940369"
         y="20.206964" /></text>
    <g
       id="g3954"
       style="fill:#000000;fill-opacity:1">
      <path
         id="rect3086"
         transform="translate(0,1036.3622)"
         d="M 17 97 L 17 101 L 17 111 L 31 111 L 31 101 L 31 97 L 17 97 z M 18 101 L 30 101 L 30 110 L 18 110 L 18 101 z "
         style="fill:#000000;fill-opacity:1;stroke:none" />
      <path
         sodipodi:nodetypes="ccccccccccccc"
         inkscape:connector-curvature="0"
         id="path4087"
         d="m 21,1138.3622 0,1 3,0 0,2 -2,0 0,1 2,0 0,2 -3,0 0,1 4,0 0,-7 z"
         style="fill:#000000;fill-opacity:1;stroke:none" />
      <rect
         y="1138.3622"
         x="26"
         height="7"
         width="1"
         id="rect4089"
         style="fill:#000000;fill-opacity:1;stroke:none" />
    </g>
    <path
       inkscape:connector-curvature="0"
       style="fill:#000000;fill-opacity:1;stroke:none"
       d="m 39,1101.3622 c -2.761424,0 -5,2.2386 -5,5 0,2.7614 2.238576,5 5,5 2.761424,0 5,-2.2386 5,-5 0,-2.7614 -2.238576,-5 -5,-5 z m 0,2 c 1.5,0 3,1 3,3 0,2 -1.5,3 -3,3 -1.5,0 -3,-1 -3,-3 0,-2 1.5,-3 3,-3 z"
       id="path4056"
       sodipodi:nodetypes="ssssszzzzz" />
    <path
       style="fill:#000000;fill-opacity:1;stroke:none"
       d="m 46.5,1112.8622 -1.5,1.5 -4,-4 1.5,-1.5 z"
       id="path4070"
       inkscape:connector-curvature="0" />
    <g
       id="g3973"
       style="fill:#000000;fill-opacity:1"
       transform="translate(0.5,-0.49998474)">
      <rect
         style="fill:#000000;fill-opacity:1;stroke:none"
         id="rect4082"
         width="6"
         height="2.0000174"
         x="35.5"
         y="1121.8622" />
      <rect
         transform="matrix(0,-1,1,0,0,0)"
         y="37.5"
         x="-1125.8622"
         height="2"
         width="5.9999967"
         id="rect4084"
         style="fill:#000000;fill-opacity:1;stroke:none" />
      <g
         id="g4103"
         transform="translate(-31.5,32.5)"
         style="fill:#000000;fill-opacity:1">
        <path
           id="path4105"
           transform="translate(0,1052.3622)"
           d="m 70,33 c -2.761424,0 -5,2.238576 -5,5 0,2.761424 2.238576,5 5,5 2.761424,0 5,-2.238576 5,-5 0,-2.761424 -2.238576,-5 -5,-5 z m 0,1 c 2.209139,0 4,1.790861 4,4 0,2.209139 -1.790861,4 -4,4 -2.209139,0 -4,-1.790861 -4,-4 0,-2.209139 1.790861,-4 4,-4 z"
           style="fill:#000000;fill-opacity:1;stroke:none"
           inkscape:connector-curvature="0" />
        <path
           transform="translate(0,1052.3622)"
           inkscape:connector-curvature="0"
           id="path4107"
           d="M 78,44.5 76.5,46 72.5,42 74,40.5 z"
           style="fill:#000000;fill-opacity:1;stroke:none" />
      </g>
    </g>
    <g
       id="g3828"
       transform="translate(0.5,-1.4999847)"
       style="fill:#000000;fill-opacity:1">
      <rect
         y="1138.8622"
         x="35.5"
         height="1.9999942"
         width="6"
         id="rect4092"
         style="fill:#000000;fill-opacity:1;stroke:none" />
      <g
         transform="translate(-31.5,49.5)"
         id="g4109"
         style="fill:#000000;fill-opacity:1">
        <path
           inkscape:connector-curvature="0"
           style="fill:#000000;fill-opacity:1;stroke:none"
           d="m 70,33 c -2.761424,0 -5,2.238576 -5,5 0,2.761424 2.238576,5 5,5 2.761424,0 5,-2.238576 5,-5 0,-2.761424 -2.238576,-5 -5,-5 z m 0,1 c 2.209139,0 4,1.790861 4,4 0,2.209139 -1.790861,4 -4,4 -2.209139,0 -4,-1.790861 -4,-4 0,-2.209139 1.790861,-4 4,-4 z"
           transform="translate(0,1052.3622)"
           id="path4111" />
        <path
           style="fill:#000000;fill-opacity:1;stroke:none"
           d="M 78,44.5 76.5,46 72.5,42 74,40.5 z"
           id="path4113"
           inkscape:connector-curvature="0"
           transform="translate(0,1052.3622)" />
      </g>
    </g>
    <g
       id="g3877"
       style="fill:#000000;fill-opacity:1">
      <path
         id="path3102"
         d="m 19,1040.3622 0,11 11,0 0,-11 z m 2,2 1,0 0,8 -1,0 z m 4,0 0,8 -1,0 0,-8 m 3,0 1,0 0,8 -1,0 z"
         style="fill:#000000;fill-opacity:1;stroke:none"
         inkscape:connector-curvature="0"
         sodipodi:nodetypes="ccccccccccccccccccc" />
      <path
         sodipodi:nodetypes="cccscccc"
         inkscape:connector-curvature="0"
         id="path3885"
         d="m 18,1040.3622 0,-2 4,0 c 0,0 1,-1 2.5,-1 1.5,0 2.5,1 2.5,1 l 4,0 0,2 z"
         style="fill:#000000;fill-opacity:1;stroke:none" />
    </g>
    <path
       inkscape:connector-curvature="0"
       style="fill:#000000;fill-opacity:1;stroke:none"
       d="m 33,1149.3622 0,14 14,0 0,-1 0,-13 z m 1,1 12,0 0,12 -12,0 z m 3.1875,1.0313 c -1.230827,0.1559 -2.1875,1.1955 -2.1875,2.4687 0,1.3807 1.119288,2.5 2.5,2.5 1.035534,0 1.932979,-0.634 2.3125,-1.5312 -0.103959,0.013 -0.204964,0.031 -0.3125,0.031 -1.380712,0 -2.5,-1.1193 -2.5,-2.5 0,-0.3452 0.06099,-0.6697 0.1875,-0.9688 z m 4.8125,3.9687 -2,3 -1,-1 -4,4 1,0 3,-3 1,1 2,-2.5 2,4.5 1,0 z"
       id="path3139"
       sodipodi:nodetypes="ccccccccccccsscssccccccccccccc" />
    <g
       id="g3959"
       style="fill:#000000;fill-opacity:1">
      <path
         id="path3907"
         d="m 17,1158.3622 0,4 6,0 -2,-2 -3,0 0,-2 z m 8,4 6,0 0,-4 -1,0 0,2 -3,0 z"
         style="fill:#000000;fill-opacity:1;stroke:none"
         inkscape:connector-curvature="0"
         sodipodi:nodetypes="cccccccccccccc" />
    </g>
    <path
       style="fill:#000000;fill-opacity:1;stroke:none"
       d="m 40,47.000015 c 0,0 7,-2.000017 7,-7.000017 0,-5 -4,-7 -7,-7 -3,0 -5,2 -5,2 l -2,-2 0,8 8,0 -2,-2 c 0,0 0.5,-1.5 2,-1.5 1.5,0 3,0.5 3,3.5 0,3 -4,6.000017 -4,6.000017 z"
       id="path4656"
       inkscape:connector-curvature="0"
       transform="translate(0,1036.3622)"
       sodipodi:nodetypes="czzccccczzc" />
    <path
       sodipodi:nodetypes="cccccccccccccc"
       inkscape:connector-curvature="0"
       id="path3077"
       d="m 7,1155.3622 -5,-5 9,0 -1,2 -4,0 2,2 2,-2 1,-2 3,0 -5,5 0,7 -1,0 -1,0 z"
       style="fill:#000000;fill-opacity:1;stroke:none" />
    <g
       id="g3881"
       style="fill:#000000;fill-opacity:1">
      <g
         id="g3123"
         style="fill:#000000;fill-opacity:1">
        <g
           style="font-size:14px;font-style:normal;font-variant:normal;font-weight:bold;font-stretch:normal;line-height:125%;letter-spacing:0px;word-spacing:0px;fill:#000000;fill-opacity:1;stroke:none;font-family:Century Gothic;-inkscape-font-specification:Century Gothic Bold"
           id="text3678">
          <path
             d="m 17,1060.3622 0,-1 c 0.791489,0.053 2.28995,-0.058 2.5,-1 0.21005,-0.9426 -1.08177,-2.5978 -1,-3.5 0.08177,-0.9022 1,-1.5 1.5,-1.5 0.5,0 2.234845,0.022 3,0 l 0,2 c 0,0 -1,0 -1.5,0 -0.5,0 -1,0.021 -1,0.5 0,0.4786 1,1.5 1,2.5 0,1 -1.5,2 -2.5,2"
             style="font-size:15px;fill:#000000;fill-opacity:1"
             id="path3081"
             inkscape:connector-curvature="0"
             sodipodi:nodetypes="cczzzcczzzc" />
        </g>
        <g
           id="g3119"
           style="font-size:14px;font-style:normal;font-variant:normal;font-weight:bold;font-stretch:normal;line-height:125%;letter-spacing:0px;word-spacing:0px;fill:#000000;fill-opacity:1;stroke:none;font-family:Century Gothic;-inkscape-font-specification:Century Gothic Bold"
           transform="matrix(1,0,0,-1,0,2120.7244)">
          <path
             sodipodi:nodetypes="cczzzcczzzc"
             inkscape:connector-curvature="0"
             id="path3121"
             style="font-size:15px;fill:#000000;fill-opacity:1"
             d="m 17,1060.3622 0,-1 c 0.791489,0.053 2.28995,-0.058 2.5,-1 0.21005,-0.9426 -1.08177,-2.5978 -1,-3.5 0.08177,-0.9022 1,-1.5 1.5,-1.5 0.5,0 2.234845,0.022 3,0 l 0,2 c 0,0 -1,0 -1.5,0 -0.5,0 -1,0.021 -1,0.5 0,0.4786 1,1.5 1,2.5 0,1 -1.5,2 -2.5,2" />
        </g>
      </g>
      <g
         transform="matrix(-1,0,0,1,48,1.5258789e-5)"
         id="g3129"
         style="fill:#000000;fill-opacity:1">
        <g
           id="g3131"
           style="font-size:14px;font-style:normal;font-variant:normal;font-weight:bold;font-stretch:normal;line-height:125%;letter-spacing:0px;word-spacing:0px;fill:#000000;fill-opacity:1;stroke:none;font-family:Century Gothic;-inkscape-font-specification:Century Gothic Bold">
          <path
             sodipodi:nodetypes="cczzzcczzzc"
             inkscape:connector-curvature="0"
             id="path3133"
             style="font-size:15px;fill:#000000;fill-opacity:1"
             d="m 17,1060.3622 0,-1 c 0.791489,0.053 2.28995,-0.058 2.5,-1 0.21005,-0.9426 -1.08177,-2.5978 -1,-3.5 0.08177,-0.9022 1,-1.5 1.5,-1.5 0.5,0 2.234845,0.022 3,0 l 0,2 c 0,0 -1,0 -1.5,0 -0.5,0 -1,0.021 -1,0.5 0,0.4786 1,1.5 1,2.5 0,1 -1.5,2 -2.5,2" />
        </g>
        <g
           transform="matrix(1,0,0,-1,0,2120.7244)"
           style="font-size:14px;font-style:normal;font-variant:normal;font-weight:bold;font-stretch:normal;line-height:125%;letter-spacing:0px;word-spacing:0px;fill:#000000;fill-opacity:1;stroke:none;font-family:Century Gothic;-inkscape-font-specification:Century Gothic Bold"
           id="g3135">
          <path
             d="m 17,1060.3622 0,-1 c 0.791489,0.053 2.28995,-0.058 2.5,-1 0.21005,-0.9426 -1.08177,-2.5978 -1,-3.5 0.08177,-0.9022 1,-1.5 1.5,-1.5 0.5,0 2.234845,0.022 3,0 l 0,2 c 0,0 -1,0 -1.5,0 -0.5,0 -1,0.021 -1,0.5 0,0.4786 1,1.5 1,2.5 0,1 -1.5,2 -2.5,2"
             style="font-size:15px;fill:#000000;fill-opacity:1"
             id="path3137"
             inkscape:connector-curvature="0"
             sodipodi:nodetypes="cczzzcczzzc" />
        </g>
      </g>
    </g>
    <g
       id="g3937"
       style="fill:#000000;fill-opacity:1">
      <rect
         y="1085.3622"
         x="16"
         height="2"
         width="16"
         id="rect5499"
         style="fill:#000000;fill-opacity:1;stroke:none" />
      <rect
         y="1089.3622"
         x="16"
         height="2"
         width="16"
         id="rect5507"
         style="fill:#000000;fill-opacity:1;stroke:none" />
    </g>
    <path
       style="fill:#000000;fill-opacity:1;stroke:none"
       d="m 12,1092.3622 -7,-7 0,2.5 4.5,4.5 -4.5,4.5 0,2.5 z"
       id="path3079"
       inkscape:connector-curvature="0"
       sodipodi:nodetypes="ccccccc" />
    <rect
       y="1148.3622"
       x="48"
       height="16"
       width="16"
       id="rect3076"
       style="fill:#000000;fill-opacity:0.13777777;stroke:none" />
    <rect
       style="fill:#000000;fill-opacity:0.13777777;stroke:none"
       id="rect3080"
       width="16"
       height="16"
       x="48"
       y="1116.3622" />
    <g
       id="g3097"
       transform="translate(-3,2.5000153)" />
    <g
       id="g4032"
       style="fill:#000000;fill-opacity:1">
      <path
         id="path4024"
         transform="translate(0,1036.3622)"
         d="M 61 0.5 L 48.5 13 L 51 15.5 L 63.5 3 L 61 0.5 z M 61 1.5 L 62.5 3 L 60.75 4.75 L 59.25 3.25 L 61 1.5 z M 51.25 11.25 L 52.75 12.75 L 51 14.5 L 49.5 13 L 51.25 11.25 z "
         style="fill:#000000;stroke:none;stroke-width:1px;stroke-linecap:butt;stroke-linejoin:miter;stroke-opacity:1;fill-opacity:1" />
      <path
         sodipodi:type="star"
         style="fill:#000000;fill-opacity:1;stroke:none"
         id="path3883"
         sodipodi:sides="5"
         sodipodi:cx="60.5"
         sodipodi:cy="1.5000153"
         sodipodi:r1="3.6400549"
         sodipodi:r2="1.5845937"
         sodipodi:arg1="1.2924967"
         sodipodi:arg2="1.9208152"
         inkscape:flatsided="false"
         inkscape:rounded="0.1"
         inkscape:randomized="0"
         d="M 61.5,5.0000153 C 61.256218,5.0696673 60.194782,3.0754708 59.956618,2.988529 59.718454,2.9015872 57.621895,3.7429579 57.480319,3.5326312 57.338743,3.3223044 58.907335,1.6965786 58.916425,1.4432045 c 0.0091,-0.253374 -1.438974,-1.98732248 -1.28269,-2.18696356 0.156283,-0.19964108 2.187162,0.78980155 2.430944,0.72014957 0.243782,-0.06965198 1.445388,-1.98266171 1.683552,-1.89571991 0.238165,0.086942 -0.07527,2.32417674 0.0663,2.53450351 0.141575,0.21032678 2.332273,0.76197019 2.323183,1.01534419 -0.0091,0.2533741 -2.233685,0.6466187 -2.389968,0.8462598 -0.156284,0.1996411 -0.004,2.4535852 -0.247747,2.5232372 z"
         transform="matrix(0.78502359,-0.12553558,0.12553558,0.78502359,4.3507742,1046.921)" />
      <path
         transform="matrix(0.49536964,-0.07921611,0.07921611,0.49536964,31.747652,1048.132)"
         d="M 61.5,5.0000153 C 61.256218,5.0696673 60.194782,3.0754708 59.956618,2.988529 59.718454,2.9015872 57.621895,3.7429579 57.480319,3.5326312 57.338743,3.3223044 58.907335,1.6965786 58.916425,1.4432045 c 0.0091,-0.253374 -1.438974,-1.98732248 -1.28269,-2.18696356 0.156283,-0.19964108 2.187162,0.78980155 2.430944,0.72014957 0.243782,-0.06965198 1.445388,-1.98266171 1.683552,-1.89571991 0.238165,0.086942 -0.07527,2.32417674 0.0663,2.53450351 0.141575,0.21032678 2.332273,0.76197019 2.323183,1.01534419 -0.0091,0.2533741 -2.233685,0.6466187 -2.389968,0.8462598 -0.156284,0.1996411 -0.004,2.4535852 -0.247747,2.5232372 z"
         inkscape:randomized="0"
         inkscape:rounded="0.1"
         inkscape:flatsided="false"
         sodipodi:arg2="1.9208152"
         sodipodi:arg1="1.2924967"
         sodipodi:r2="1.5845937"
         sodipodi:r1="3.6400549"
         sodipodi:cy="1.5000153"
         sodipodi:cx="60.5"
         sodipodi:sides="5"
         id="path3886"
         style="fill:#000000;fill-opacity:1;stroke:none"
         sodipodi:type="star" />
      <path
         sodipodi:type="star"
         style="fill:#000000;fill-opacity:1;stroke:none"
         id="path3908"
         sodipodi:sides="5"
         sodipodi:cx="60.5"
         sodipodi:cy="1.5000153"
         sodipodi:r1="3.6400549"
         sodipodi:r2="1.5845937"
         sodipodi:arg1="1.2924967"
         sodipodi:arg2="1.9208152"
         inkscape:flatsided="false"
         inkscape:rounded="0.1"
         inkscape:randomized="0"
         d="M 61.5,5.0000153 C 61.256218,5.0696673 60.194782,3.0754708 59.956618,2.988529 59.718454,2.9015872 57.621895,3.7429579 57.480319,3.5326312 57.338743,3.3223044 58.907335,1.6965786 58.916425,1.4432045 c 0.0091,-0.253374 -1.438974,-1.98732248 -1.28269,-2.18696356 0.156283,-0.19964108 2.187162,0.78980155 2.430944,0.72014957 0.243782,-0.06965198 1.445388,-1.98266171 1.683552,-1.89571991 0.238165,0.086942 -0.07527,2.32417674 0.0663,2.53450351 0.141575,0.21032678 2.332273,0.76197019 2.323183,1.01534419 -0.0091,0.2533741 -2.233685,0.6466187 -2.389968,0.8462598 -0.156284,0.1996411 -0.004,2.4535852 -0.247747,2.5232372 z"
         transform="matrix(0.29752649,-0.47751384,0.47751384,0.29752649,37.781653,1066.5662)" />
    </g>
    <g
       id="g4002"
       style="fill:#000000;fill-opacity:1">
      <rect
         style="fill:#000000;fill-opacity:1;stroke:none"
         id="rect3927"
         width="16"
         height="3.0000327"
         x="48"
         y="1052.3622" />
      <rect
         style="fill:#000000;fill-opacity:1;stroke:none"
         id="rect3929"
         width="16"
         height="3.0000327"
         x="48"
         y="1058.3622" />
      <rect
         y="1064.3622"
         x="48"
         height="3.0000327"
         width="16"
         id="rect3933"
         style="fill:#000000;fill-opacity:1;stroke:none" />
    </g>
    <text
       xml:space="preserve"
       style="font-size:40px;font-style:normal;font-variant:normal;font-weight:normal;font-stretch:normal;line-height:125%;letter-spacing:0px;word-spacing:0px;fill:#000000;fill-opacity:1;stroke:none;font-family:Century Gothic;-inkscape-font-specification:Century Gothic"
       x="69.375"
       y="42.625015"
       id="text3869"
       sodipodi:linespacing="125%"
       transform="translate(0,1036.3622)"><tspan
         sodipodi:role="line"
         id="tspan3871" /></text>
    <path
       style="fill:#000000;stroke:none;stroke-width:1px;stroke-linecap:butt;stroke-linejoin:miter;stroke-opacity:1;fill-opacity:1"
       d="M 44.5 48 L 42.5 50 L 33 50 L 33 63 L 46 63 L 46 53.5 L 48 51.5 L 44.5 48 z M 44.5 49.5 L 46.5 51.5 L 45.5 52.5 L 43.5 50.5 L 44.5 49.5 z M 34 51 L 41.5 51 L 36.5 56 L 35.5 60.5 L 40 59.5 L 45 54.5 L 45 62 L 34 62 L 34 51 z M 37.5 56.5 L 39.5 58.5 L 37 59 L 37.5 56.5 z "
       transform="translate(0,1036.3622)"
       id="path3983" />
    <g
       style="fill:#000000;fill-opacity:1"
       id="g3098"
       transform="matrix(1,0,0,-1,-35.5,2250.7244)" />
    <g
       style="fill:#000000;fill-opacity:1"
       id="g3107"
       transform="matrix(1,0,0,-1,0,2253.7244)">
      <path
         style="fill:#000000;fill-opacity:1;stroke:none"
         d="m 24,1160.3622 -5,-5 3,0 0,-2 4,0 0,2 3,0 z"
         id="path3111"
         inkscape:connector-curvature="0"
         sodipodi:nodetypes="cccccccc" />
    </g>
    <path
       style="fill:#000000;fill-opacity:1;stroke:none"
       d="m 20,59.000015 2,-2 -6,0 0,2 z"
       id="path3113"
       inkscape:connector-curvature="0"
       transform="translate(0,1036.3622)"
       sodipodi:nodetypes="ccccc" />
    <path
       inkscape:connector-curvature="0"
       id="path3884"
       d="m 28,1095.3622 -2,-2 6,0 0,2 z"
       style="fill:#000000;fill-opacity:1;stroke:none"
       sodipodi:nodetypes="ccccc" />
    <rect
       y="1100.3622"
       x="16"
       height="2"
       width="16"
       id="rect3891"
       style="fill:#000000;fill-opacity:1;stroke:none" />
    <g
       transform="matrix(1,0,0,-1,0,2269.7244)"
       id="g3895"
       style="fill:#000000;fill-opacity:1">
      <path
         sodipodi:nodetypes="cccccccc"
         inkscape:connector-curvature="0"
         id="path3897"
         d="m 24,1154.3622 -5,5 3,0 0,2 4,0 0,-2 3,0 z"
         style="fill:#000000;fill-opacity:1;stroke:none" />
    </g>
    <path
       sodipodi:nodetypes="ccccc"
       inkscape:connector-curvature="0"
       id="path3899"
       d="m 19,1112.3622 2,2 -5,0 0,-2 z"
       style="fill:#000000;fill-opacity:1;stroke:none" />
    <path
       sodipodi:nodetypes="ccccc"
       style="fill:#000000;fill-opacity:1;stroke:none"
       d="m 29,1112.3622 -2,2 5,0 0,-2 z"
       id="path3901"
       inkscape:connector-curvature="0" />
    <rect
       style="fill:#000000;fill-opacity:1;stroke:none"
       id="rect3913"
       width="2"
       height="10"
       x="16"
       y="1102.3622" />
    <rect
       style="fill:#000000;fill-opacity:1;stroke:none"
       id="rect3915"
       width="2"
       height="10"
       x="30"
       y="1102.3622" />
    <path
       style="fill:#000000;fill-opacity:1;stroke:none"
       d="m 56,1093.3622 7,-7 -2.5,0 -4.5,4.5 -4.5,-4.5 -2.5,0 z"
       id="path3929"
       inkscape:connector-curvature="0"
       sodipodi:nodetypes="ccccccc" />
    <path
       sodipodi:nodetypes="ccccccc"
       inkscape:connector-curvature="0"
       id="path3931"
       d="m 56,1091.3622 7,7 -2.5,0 -4.5,-4.5 -4.5,4.5 -2.5,0 z"
       style="fill:#000000;fill-opacity:1;stroke:none" />
    <g
       style="fill:#000000;fill-opacity:1"
       id="g3933"
       transform="matrix(1,0,0,-1,-3,2315.7244)">
      <path
         style="fill:#000000;fill-opacity:1;stroke:none"
         d="m 27,1154.3622 -5,5 3,0 0,5 4,0 0,-5 3,0 z"
         id="path3935"
         inkscape:connector-curvature="0"
         sodipodi:nodetypes="cccccccc" />
    </g>
    <path
       sodipodi:nodetypes="ssssszzzzz"
       id="path3870"
       d="m 39,1101.3622 c -2.761424,0 -5,2.2386 -5,5 0,2.7614 2.238576,5 5,5 2.761424,0 5,-2.2386 5,-5 0,-2.7614 -2.238576,-5 -5,-5 z m 0,2 c 1.5,0 3,1 3,3 0,2 -1.5,3 -3,3 -1.5,0 -3,-1 -3,-3 0,-2 1.5,-3 3,-3 z"
       style="fill:#000000;fill-opacity:1;stroke:none"
       inkscape:connector-curvature="0" />
    <path
       sodipodi:type="star"
       style="fill:#000000;fill-opacity:1;stroke:none"
       id="path3091"
       sodipodi:sides="5"
       sodipodi:cx="60.5"
       sodipodi:cy="1.5000153"
       sodipodi:r1="3.6400549"
       sodipodi:r2="1.5845937"
       sodipodi:arg1="1.2924967"
       sodipodi:arg2="1.9208152"
       inkscape:flatsided="false"
       inkscape:rounded="0.1"
       inkscape:randomized="0"
       d="M 61.5,5.0000153 C 61.256218,5.0696673 60.194782,3.0754708 59.956618,2.988529 59.718454,2.9015872 57.621895,3.7429579 57.480319,3.5326312 57.338743,3.3223044 58.907335,1.6965786 58.916425,1.4432045 c 0.0091,-0.253374 -1.438974,-1.98732248 -1.28269,-2.18696356 0.156283,-0.19964108 2.187162,0.78980155 2.430944,0.72014957 0.243782,-0.06965198 1.445388,-1.98266171 1.683552,-1.89571991 0.238165,0.086942 -0.07527,2.32417674 0.0663,2.53450351 0.141575,0.21032678 2.332273,0.76197019 2.323183,1.01534419 -0.0091,0.2533741 -2.233685,0.6466187 -2.389968,0.8462598 -0.156284,0.1996411 -0.004,2.4535852 -0.247747,2.5232372 z"
       transform="matrix(0.79323653,0.05288694,-0.05288694,0.79323653,13.101661,1108.5739)" />
    <path
       sodipodi:type="star"
       style="fill:#000000;fill-opacity:1;stroke:none"
       id="path3095"
       sodipodi:sides="5"
       sodipodi:cx="60.5"
       sodipodi:cy="1.5000153"
       sodipodi:r1="3.6400549"
       sodipodi:r2="1.5845937"
       sodipodi:arg1="1.2924967"
       sodipodi:arg2="1.9208152"
       inkscape:flatsided="false"
       inkscape:rounded="0.1"
       inkscape:randomized="0"
       d="M 61.5,5.0000153 C 61.256218,5.0696673 60.194782,3.0754708 59.956618,2.988529 59.718454,2.9015872 57.621895,3.7429579 57.480319,3.5326312 57.338743,3.3223044 58.907335,1.6965786 58.916425,1.4432045 c 0.0091,-0.253374 -1.438974,-1.98732248 -1.28269,-2.18696356 0.156283,-0.19964108 2.187162,0.78980155 2.430944,0.72014957 0.243782,-0.06965198 1.445388,-1.98266171 1.683552,-1.89571991 0.238165,0.086942 -0.07527,2.32417674 0.0663,2.53450351 0.141575,0.21032678 2.332273,0.76197019 2.323183,1.01534419 -0.0091,0.2533741 -2.233685,0.6466187 -2.389968,0.8462598 -0.156284,0.1996411 -0.004,2.4535852 -0.247747,2.5232372 z"
       transform="matrix(0.29752649,-0.47751384,0.47751384,0.29752649,31.640441,1131.051)" />
    <path
       transform="matrix(0.64574451,-0.46371893,0.46371893,0.64574451,19.224512,1131.2306)"
       d="M 61.5,5.0000153 C 61.256218,5.0696673 60.194782,3.0754708 59.956618,2.988529 59.718454,2.9015872 57.621895,3.7429579 57.480319,3.5326312 57.338743,3.3223044 58.907335,1.6965786 58.916425,1.4432045 c 0.0091,-0.253374 -1.438974,-1.98732248 -1.28269,-2.18696356 0.156283,-0.19964108 2.187162,0.78980155 2.430944,0.72014957 0.243782,-0.06965198 1.445388,-1.98266171 1.683552,-1.89571991 0.238165,0.086942 -0.07527,2.32417674 0.0663,2.53450351 0.141575,0.21032678 2.332273,0.76197019 2.323183,1.01534419 -0.0091,0.2533741 -2.233685,0.6466187 -2.389968,0.8462598 -0.156284,0.1996411 -0.004,2.4535852 -0.247747,2.5232372 z"
       inkscape:randomized="0"
       inkscape:rounded="0.1"
       inkscape:flatsided="false"
       sodipodi:arg2="1.9208152"
       sodipodi:arg1="1.2924967"
       sodipodi:r2="1.5845937"
       sodipodi:r1="3.6400549"
       sodipodi:cy="1.5000153"
       sodipodi:cx="60.5"
       sodipodi:sides="5"
       id="path3950"
       style="fill:#000000;fill-opacity:1;stroke:none"
       sodipodi:type="star" />
    <path
       sodipodi:type="star"
       style="fill:#000000;fill-opacity:1;stroke:none"
       id="path3952"
       sodipodi:sides="5"
       sodipodi:cx="60.5"
       sodipodi:cy="1.5000153"
       sodipodi:r1="3.6400549"
       sodipodi:r2="1.5845937"
       sodipodi:arg1="1.2924967"
       sodipodi:arg2="1.9208152"
       inkscape:flatsided="false"
       inkscape:rounded="0.1"
       inkscape:randomized="0"
       d="M 61.5,5.0000153 C 61.256218,5.0696673 60.194782,3.0754708 59.956618,2.988529 59.718454,2.9015872 57.621895,3.7429579 57.480319,3.5326312 57.338743,3.3223044 58.907335,1.6965786 58.916425,1.4432045 c 0.0091,-0.253374 -1.438974,-1.98732248 -1.28269,-2.18696356 0.156283,-0.19964108 2.187162,0.78980155 2.430944,0.72014957 0.243782,-0.06965198 1.445388,-1.98266171 1.683552,-1.89571991 0.238165,0.086942 -0.07527,2.32417674 0.0663,2.53450351 0.141575,0.21032678 2.332273,0.76197019 2.323183,1.01534419 -0.0091,0.2533741 -2.233685,0.6466187 -2.389968,0.8462598 -0.156284,0.1996411 -0.004,2.4535852 -0.247747,2.5232372 z"
       transform="matrix(0.77144926,-0.19206057,0.19206057,0.77144926,7.2717848,1118.0644)" />
    <path
       transform="matrix(0.55512276,0.39550548,-0.40957218,0.53605715,19.907818,1087.8583)"
       d="M 61.5,5.0000153 C 61.256218,5.0696673 60.194782,3.0754708 59.956618,2.988529 59.718454,2.9015872 57.621895,3.7429579 57.480319,3.5326312 57.338743,3.3223044 58.907335,1.6965786 58.916425,1.4432045 c 0.0091,-0.253374 -1.438974,-1.98732248 -1.28269,-2.18696356 0.156283,-0.19964108 2.187162,0.78980155 2.430944,0.72014957 0.243782,-0.06965198 1.445388,-1.98266171 1.683552,-1.89571991 0.238165,0.086942 -0.07527,2.32417674 0.0663,2.53450351 0.141575,0.21032678 2.332273,0.76197019 2.323183,1.01534419 -0.0091,0.2533741 -2.233685,0.6466187 -2.389968,0.8462598 -0.156284,0.1996411 -0.004,2.4535852 -0.247747,2.5232372 z"
       inkscape:randomized="0"
       inkscape:rounded="0.1"
       inkscape:flatsided="false"
       sodipodi:arg2="1.9208152"
       sodipodi:arg1="1.2924967"
       sodipodi:r2="1.5845937"
       sodipodi:r1="3.6400549"
       sodipodi:cy="1.5000153"
       sodipodi:cx="60.5"
       sodipodi:sides="5"
       id="path3954"
       style="fill:#000000;fill-opacity:1;stroke:none"
       sodipodi:type="star" />
  </g>
</svg>
